<?xml version="1.0" encoding="utf-8"?>
<!-- Generator: Adobe Illustrator 24.0.1, SVG Export Plug-In . SVG Version: 6.00 Build 0)  -->
<svg version="1.1" id="Capa_1" xmlns="http://www.w3.org/2000/svg" xmlns:xlink="http://www.w3.org/1999/xlink" x="0px" y="0px"
	 viewBox="0 0 493.3 493.3" style="enable-background:new 0 0 493.3 493.3;" xml:space="preserve">
<style type="text/css">
	.st0{fill:#73706F;}
</style>
<g id="XMLID_621_">
	<path id="XMLID_623_" class="st0" d="M131.6,219.3h230.1c9.3,0,17.9-5.2,22.2-13.4c4.3-8.2,3.8-18.2-1.5-25.9L265.9,9.8
		C261.8,3.7,254.8,0,247.5,0c-7.4,0-14.3,3.6-18.5,9.7L111,179.9c-5.3,7.7-5.9,17.7-1.6,25.9C113.7,214.1,122.2,219.3,131.6,219.3z"
		/>
	<path id="XMLID_622_" class="st0" d="M361.7,274H131.6c-9.3,0-17.9,5.2-22.2,13.5c-4.3,8.3-3.7,18.3,1.6,25.9l118,170.2
		c4.2,6.1,11.1,9.7,18.5,9.7s14.3-3.7,18.5-9.8l116.5-170.2c5.3-7.7,5.8-17.6,1.5-25.9C379.6,279.2,371,274,361.7,274z"/>
</g>
</svg>
